<mxfile host="app.diagrams.net" modified="2020-10-10T05:58:08.646Z" agent="5.0 (Windows NT 10.0; Win64; x64) AppleWebKit/537.36 (KHTML, like Gecko) Chrome/85.0.4183.121 Safari/537.36" etag="-l8YcUnU7veTzzzBOYxE" version="13.7.9" type="github">
  <diagram id="C5RBs43oDa-KdzZeNtuy" name="Page-1">
    <mxGraphModel dx="868" dy="433" grid="1" gridSize="10" guides="1" tooltips="1" connect="1" arrows="1" fold="1" page="1" pageScale="1" pageWidth="827" pageHeight="1169" math="0" shadow="0">
      <root>
        <mxCell id="WIyWlLk6GJQsqaUBKTNV-0" />
        <mxCell id="WIyWlLk6GJQsqaUBKTNV-1" parent="WIyWlLk6GJQsqaUBKTNV-0" />
        <mxCell id="WIyWlLk6GJQsqaUBKTNV-2" value="" style="rounded=0;html=1;jettySize=auto;orthogonalLoop=1;fontSize=11;endArrow=block;endFill=0;endSize=8;strokeWidth=1;shadow=0;labelBackgroundColor=none;edgeStyle=orthogonalEdgeStyle;" parent="WIyWlLk6GJQsqaUBKTNV-1" source="0FgXw2sklieyEirVIs_G-4" target="WIyWlLk6GJQsqaUBKTNV-6" edge="1">
          <mxGeometry relative="1" as="geometry" />
        </mxCell>
        <mxCell id="WIyWlLk6GJQsqaUBKTNV-3" value="start&amp;nbsp;" style="rounded=1;whiteSpace=wrap;html=1;fontSize=12;glass=0;strokeWidth=1;shadow=0;fillColor=#d5e8d4;strokeColor=#82b366;" parent="WIyWlLk6GJQsqaUBKTNV-1" vertex="1">
          <mxGeometry x="179.38" y="70" width="120" height="40" as="geometry" />
        </mxCell>
        <mxCell id="WIyWlLk6GJQsqaUBKTNV-4" value="Yes" style="rounded=0;html=1;jettySize=auto;orthogonalLoop=1;fontSize=11;endArrow=block;endFill=0;endSize=8;strokeWidth=1;shadow=0;labelBackgroundColor=none;edgeStyle=orthogonalEdgeStyle;" parent="WIyWlLk6GJQsqaUBKTNV-1" source="WIyWlLk6GJQsqaUBKTNV-6" target="WIyWlLk6GJQsqaUBKTNV-10" edge="1">
          <mxGeometry y="20" relative="1" as="geometry">
            <mxPoint as="offset" />
          </mxGeometry>
        </mxCell>
        <mxCell id="WIyWlLk6GJQsqaUBKTNV-5" value="No" style="edgeStyle=orthogonalEdgeStyle;rounded=0;html=1;jettySize=auto;orthogonalLoop=1;fontSize=11;endArrow=block;endFill=0;endSize=8;strokeWidth=1;shadow=0;labelBackgroundColor=none;" parent="WIyWlLk6GJQsqaUBKTNV-1" source="WIyWlLk6GJQsqaUBKTNV-6" edge="1">
          <mxGeometry y="10" relative="1" as="geometry">
            <mxPoint as="offset" />
            <mxPoint x="80" y="780" as="targetPoint" />
            <Array as="points">
              <mxPoint x="60" y="405" />
              <mxPoint x="60" y="790" />
            </Array>
          </mxGeometry>
        </mxCell>
        <mxCell id="WIyWlLk6GJQsqaUBKTNV-6" value="u8SizeOfList != 0" style="rhombus;whiteSpace=wrap;html=1;shadow=0;fontFamily=Helvetica;fontSize=12;align=center;strokeWidth=1;spacing=6;spacingTop=-4;fillColor=#e6d0de;strokeColor=#996185;gradientColor=#d5739d;" parent="WIyWlLk6GJQsqaUBKTNV-1" vertex="1">
          <mxGeometry x="180" y="360" width="110" height="90" as="geometry" />
        </mxCell>
        <mxCell id="WIyWlLk6GJQsqaUBKTNV-8" value="No" style="rounded=0;html=1;jettySize=auto;orthogonalLoop=1;fontSize=11;endArrow=block;endFill=0;endSize=8;strokeWidth=1;shadow=0;labelBackgroundColor=none;edgeStyle=orthogonalEdgeStyle;" parent="WIyWlLk6GJQsqaUBKTNV-1" source="WIyWlLk6GJQsqaUBKTNV-10" target="WIyWlLk6GJQsqaUBKTNV-11" edge="1">
          <mxGeometry x="0.3333" y="20" relative="1" as="geometry">
            <mxPoint as="offset" />
          </mxGeometry>
        </mxCell>
        <mxCell id="WIyWlLk6GJQsqaUBKTNV-9" value="Yes" style="edgeStyle=orthogonalEdgeStyle;rounded=0;html=1;jettySize=auto;orthogonalLoop=1;fontSize=11;endArrow=block;endFill=0;endSize=8;strokeWidth=1;shadow=0;labelBackgroundColor=none;" parent="WIyWlLk6GJQsqaUBKTNV-1" source="WIyWlLk6GJQsqaUBKTNV-10" target="WIyWlLk6GJQsqaUBKTNV-12" edge="1">
          <mxGeometry y="10" relative="1" as="geometry">
            <mxPoint as="offset" />
          </mxGeometry>
        </mxCell>
        <mxCell id="WIyWlLk6GJQsqaUBKTNV-10" value="&lt;font style=&quot;font-size: 11px&quot;&gt;*pu8Src &amp;gt;= ASCII_LOW_THRESHOLD_CAPSON_TO_OFF &amp;amp;&amp;amp; *pu8Src &amp;lt;= ASCII_HIGH_THRESHOLD_CAPSON_TO_OFF&lt;/font&gt;" style="rhombus;whiteSpace=wrap;html=1;shadow=0;fontFamily=Helvetica;fontSize=12;align=center;strokeWidth=1;spacing=6;spacingTop=-4;gradientColor=#d5739d;fillColor=#e6d0de;strokeColor=#996185;" parent="WIyWlLk6GJQsqaUBKTNV-1" vertex="1">
          <mxGeometry x="185" y="480" width="95" height="100" as="geometry" />
        </mxCell>
        <mxCell id="0FgXw2sklieyEirVIs_G-19" style="edgeStyle=orthogonalEdgeStyle;rounded=0;orthogonalLoop=1;jettySize=auto;html=1;exitX=0.5;exitY=1;exitDx=0;exitDy=0;entryX=0.5;entryY=0;entryDx=0;entryDy=0;" edge="1" parent="WIyWlLk6GJQsqaUBKTNV-1" source="WIyWlLk6GJQsqaUBKTNV-11" target="0FgXw2sklieyEirVIs_G-18">
          <mxGeometry relative="1" as="geometry" />
        </mxCell>
        <mxCell id="WIyWlLk6GJQsqaUBKTNV-11" value="&lt;span class=&quot;normaltextrun&quot;&gt;&lt;span style=&quot;font-size: 11.0pt ; line-height: 107% ; font-family: &amp;#34;calibri&amp;#34; , sans-serif&quot;&gt;N/A&lt;/span&gt;&lt;/span&gt;&lt;span class=&quot;eop&quot;&gt;&lt;span style=&quot;font-size: 11.0pt ; line-height: 107% ; font-family: &amp;#34;calibri&amp;#34; , sans-serif&quot;&gt;&lt;span&gt;&amp;nbsp;&lt;/span&gt;&lt;/span&gt;&lt;/span&gt;" style="rounded=1;whiteSpace=wrap;html=1;fontSize=12;glass=0;strokeWidth=1;shadow=0;gradientColor=#ea6b66;fillColor=#f8cecc;strokeColor=#b85450;" parent="WIyWlLk6GJQsqaUBKTNV-1" vertex="1">
          <mxGeometry x="183.75" y="630" width="97.5" height="20" as="geometry" />
        </mxCell>
        <mxCell id="0FgXw2sklieyEirVIs_G-21" style="edgeStyle=orthogonalEdgeStyle;rounded=0;orthogonalLoop=1;jettySize=auto;html=1;exitX=0.5;exitY=1;exitDx=0;exitDy=0;" edge="1" parent="WIyWlLk6GJQsqaUBKTNV-1" source="WIyWlLk6GJQsqaUBKTNV-12">
          <mxGeometry relative="1" as="geometry">
            <mxPoint x="545" y="700" as="targetPoint" />
          </mxGeometry>
        </mxCell>
        <mxCell id="WIyWlLk6GJQsqaUBKTNV-12" value="*pu8Src -= ASCII_CONVERSION_FACTOR;" style="rounded=1;whiteSpace=wrap;html=1;fontSize=12;glass=0;strokeWidth=1;shadow=0;gradientColor=#ea6b66;fillColor=#f8cecc;strokeColor=#b85450;" parent="WIyWlLk6GJQsqaUBKTNV-1" vertex="1">
          <mxGeometry x="450" y="510" width="190" height="30" as="geometry" />
        </mxCell>
        <mxCell id="0FgXw2sklieyEirVIs_G-0" value="printf msg" style="rounded=0;whiteSpace=wrap;html=1;fillColor=#fff2cc;strokeColor=#d6b656;" vertex="1" parent="WIyWlLk6GJQsqaUBKTNV-1">
          <mxGeometry x="186.88" y="140" width="105" height="40" as="geometry" />
        </mxCell>
        <mxCell id="0FgXw2sklieyEirVIs_G-1" value="" style="rounded=0;html=1;jettySize=auto;orthogonalLoop=1;fontSize=11;endArrow=block;endFill=0;endSize=8;strokeWidth=1;shadow=0;labelBackgroundColor=none;edgeStyle=orthogonalEdgeStyle;" edge="1" parent="WIyWlLk6GJQsqaUBKTNV-1" source="WIyWlLk6GJQsqaUBKTNV-3" target="0FgXw2sklieyEirVIs_G-0">
          <mxGeometry relative="1" as="geometry">
            <mxPoint x="220" y="120" as="sourcePoint" />
            <mxPoint x="220" y="170" as="targetPoint" />
          </mxGeometry>
        </mxCell>
        <mxCell id="0FgXw2sklieyEirVIs_G-6" value="" style="edgeStyle=orthogonalEdgeStyle;rounded=0;orthogonalLoop=1;jettySize=auto;html=1;" edge="1" parent="WIyWlLk6GJQsqaUBKTNV-1" source="0FgXw2sklieyEirVIs_G-5" target="0FgXw2sklieyEirVIs_G-4">
          <mxGeometry relative="1" as="geometry" />
        </mxCell>
        <mxCell id="0FgXw2sklieyEirVIs_G-5" value="apuntador&amp;nbsp;" style="ellipse;shape=cloud;whiteSpace=wrap;html=1;" vertex="1" parent="WIyWlLk6GJQsqaUBKTNV-1">
          <mxGeometry x="60" y="232.5" width="80" height="45" as="geometry" />
        </mxCell>
        <mxCell id="0FgXw2sklieyEirVIs_G-2" value="au8BufferTest[12]=text&amp;nbsp;" style="rounded=0;whiteSpace=wrap;html=1;fillColor=#ffe6cc;strokeColor=#d79b00;" vertex="1" parent="WIyWlLk6GJQsqaUBKTNV-1">
          <mxGeometry x="169.38" y="202.5" width="135" height="30" as="geometry" />
        </mxCell>
        <mxCell id="0FgXw2sklieyEirVIs_G-7" value="" style="rounded=0;html=1;jettySize=auto;orthogonalLoop=1;fontSize=11;endArrow=block;endFill=0;endSize=8;strokeWidth=1;shadow=0;labelBackgroundColor=none;edgeStyle=orthogonalEdgeStyle;" edge="1" parent="WIyWlLk6GJQsqaUBKTNV-1" source="0FgXw2sklieyEirVIs_G-0" target="0FgXw2sklieyEirVIs_G-2">
          <mxGeometry relative="1" as="geometry">
            <mxPoint x="227.5" y="180" as="sourcePoint" />
            <mxPoint x="227.5" y="330" as="targetPoint" />
          </mxGeometry>
        </mxCell>
        <mxCell id="0FgXw2sklieyEirVIs_G-4" value="uint8 *pu8Src" style="rounded=0;whiteSpace=wrap;html=1;fillColor=#e1d5e7;strokeColor=#9673a6;" vertex="1" parent="WIyWlLk6GJQsqaUBKTNV-1">
          <mxGeometry x="181.88" y="260" width="110" height="30" as="geometry" />
        </mxCell>
        <mxCell id="0FgXw2sklieyEirVIs_G-8" value="" style="rounded=0;html=1;jettySize=auto;orthogonalLoop=1;fontSize=11;endArrow=block;endFill=0;endSize=8;strokeWidth=1;shadow=0;labelBackgroundColor=none;edgeStyle=orthogonalEdgeStyle;" edge="1" parent="WIyWlLk6GJQsqaUBKTNV-1" source="0FgXw2sklieyEirVIs_G-2" target="0FgXw2sklieyEirVIs_G-4">
          <mxGeometry relative="1" as="geometry">
            <mxPoint x="227.5" y="230" as="sourcePoint" />
            <mxPoint x="227.5" y="330" as="targetPoint" />
          </mxGeometry>
        </mxCell>
        <mxCell id="0FgXw2sklieyEirVIs_G-9" value="uint8 u8SizeOfList" style="rounded=0;whiteSpace=wrap;html=1;fillColor=#e1d5e7;strokeColor=#9673a6;" vertex="1" parent="WIyWlLk6GJQsqaUBKTNV-1">
          <mxGeometry x="185" y="310" width="117.5" height="30" as="geometry" />
        </mxCell>
        <mxCell id="0FgXw2sklieyEirVIs_G-11" value="" style="edgeStyle=orthogonalEdgeStyle;rounded=0;orthogonalLoop=1;jettySize=auto;html=1;" edge="1" parent="WIyWlLk6GJQsqaUBKTNV-1" source="0FgXw2sklieyEirVIs_G-10" target="0FgXw2sklieyEirVIs_G-9">
          <mxGeometry relative="1" as="geometry" />
        </mxCell>
        <mxCell id="0FgXw2sklieyEirVIs_G-10" value="tamaño&amp;nbsp;" style="ellipse;shape=cloud;whiteSpace=wrap;html=1;" vertex="1" parent="WIyWlLk6GJQsqaUBKTNV-1">
          <mxGeometry x="40" y="300" width="90" height="40" as="geometry" />
        </mxCell>
        <mxCell id="0FgXw2sklieyEirVIs_G-15" style="edgeStyle=orthogonalEdgeStyle;rounded=0;orthogonalLoop=1;jettySize=auto;html=1;exitX=0;exitY=0.5;exitDx=0;exitDy=0;" edge="1" parent="WIyWlLk6GJQsqaUBKTNV-1" source="0FgXw2sklieyEirVIs_G-12">
          <mxGeometry relative="1" as="geometry">
            <mxPoint x="90" y="785" as="targetPoint" />
          </mxGeometry>
        </mxCell>
        <mxCell id="0FgXw2sklieyEirVIs_G-12" value="End&amp;nbsp;" style="rounded=1;whiteSpace=wrap;html=1;fillColor=#d5e8d4;strokeColor=#82b366;" vertex="1" parent="WIyWlLk6GJQsqaUBKTNV-1">
          <mxGeometry x="192.5" y="770" width="80" height="30" as="geometry" />
        </mxCell>
        <mxCell id="0FgXw2sklieyEirVIs_G-20" style="edgeStyle=orthogonalEdgeStyle;rounded=0;orthogonalLoop=1;jettySize=auto;html=1;exitX=0.5;exitY=1;exitDx=0;exitDy=0;entryX=0.5;entryY=0;entryDx=0;entryDy=0;" edge="1" parent="WIyWlLk6GJQsqaUBKTNV-1" source="0FgXw2sklieyEirVIs_G-18" target="0FgXw2sklieyEirVIs_G-12">
          <mxGeometry relative="1" as="geometry" />
        </mxCell>
        <mxCell id="0FgXw2sklieyEirVIs_G-22" style="edgeStyle=orthogonalEdgeStyle;rounded=0;orthogonalLoop=1;jettySize=auto;html=1;exitX=1;exitY=0.5;exitDx=0;exitDy=0;" edge="1" parent="WIyWlLk6GJQsqaUBKTNV-1" source="0FgXw2sklieyEirVIs_G-18">
          <mxGeometry relative="1" as="geometry">
            <mxPoint x="550" y="705" as="targetPoint" />
          </mxGeometry>
        </mxCell>
        <mxCell id="0FgXw2sklieyEirVIs_G-18" value="printf au8BufferTest" style="rounded=0;whiteSpace=wrap;html=1;fillColor=#fff2cc;strokeColor=#d6b656;" vertex="1" parent="WIyWlLk6GJQsqaUBKTNV-1">
          <mxGeometry x="172.5" y="680" width="118.75" height="50" as="geometry" />
        </mxCell>
        <mxCell id="0FgXw2sklieyEirVIs_G-23" value="&lt;p class=&quot;paragraph&quot; style=&quot;margin-top: 0cm ; margin-right: 0cm ; margin-bottom: 0cm ; margin-left: 54.0pt ; text-indent: 0cm ; vertical-align: baseline&quot;&gt;&lt;i&gt;&lt;span style=&quot;outline: transparent solid 1px&quot;&gt;&lt;font face=&quot;calibri, sans-serif&quot;&gt;&lt;span style=&quot;font-size: 14.6667px ; background-color: rgb(252 , 255 , 252)&quot;&gt;Void&amp;nbsp;&lt;/span&gt;&lt;/font&gt;&lt;span style=&quot;background-color: inherit&quot;&gt;&amp;nbsp;&lt;/span&gt;&lt;/span&gt;&lt;span style=&quot;outline: transparent solid 1px&quot;&gt;&lt;span style=&quot;border-bottom: transparent ; background-color: inherit&quot;&gt;GENFUN&lt;/span&gt;&lt;/span&gt;&lt;span style=&quot;outline: transparent solid 1px&quot;&gt;&lt;span style=&quot;border-bottom: transparent ; background-color: inherit&quot;&gt;_&lt;/span&gt;&lt;/span&gt;&lt;span style=&quot;outline: transparent solid 1px&quot;&gt;&lt;span style=&quot;border-bottom: transparent ; background-color: inherit&quot;&gt;v&lt;/span&gt;&lt;/span&gt;&lt;span style=&quot;outline: transparent solid 1px&quot;&gt;&lt;span style=&quot;border-bottom: transparent ; background-color: inherit&quot;&gt;CapsOn&lt;/span&gt;&lt;/span&gt;&lt;span style=&quot;outline: transparent solid 1px&quot;&gt;&lt;span style=&quot;background-color: inherit&quot;&gt;&amp;nbsp;&lt;/span&gt;&lt;/span&gt;&lt;span style=&quot;outline: transparent solid 1px&quot;&gt;&lt;span style=&quot;background-color: inherit&quot;&gt;(&lt;/span&gt;&lt;/span&gt;&lt;span style=&quot;outline: transparent solid 1px&quot;&gt;&lt;span style=&quot;background-color: inherit&quot;&gt;uint&lt;/span&gt;&lt;/span&gt;&lt;span style=&quot;outline: transparent solid 1px&quot;&gt;&lt;span style=&quot;background-color: inherit&quot;&gt;8 *pu8Src&lt;/span&gt;&lt;/span&gt;&lt;span style=&quot;outline: transparent solid 1px&quot;&gt;&lt;span style=&quot;background-color: inherit&quot;&gt;,&amp;nbsp;&lt;/span&gt;&lt;/span&gt;&lt;span style=&quot;outline: transparent solid 1px&quot;&gt;&lt;span style=&quot;background-color: inherit&quot;&gt;uint8 u8SizeOfList)&lt;/span&gt;&lt;/span&gt;&lt;/i&gt;&lt;span&gt;&lt;span class=&quot;eop&quot;&gt;&lt;span lang=&quot;EN-US&quot; style=&quot;font-size: 11.0pt ; font-family: &amp;#34;calibri&amp;#34; , sans-serif&quot;&gt;&amp;nbsp;&lt;/span&gt;&lt;/span&gt;&lt;/span&gt;&lt;span lang=&quot;EN-US&quot; style=&quot;font-size: 14.0pt ; font-family: &amp;#34;calibri&amp;#34; , sans-serif&quot;&gt;&lt;/span&gt;&lt;/p&gt;&lt;br&gt;&lt;br&gt;&lt;span&gt;&lt;span style=&quot;background-color: inherit&quot;&gt;&lt;/span&gt;&lt;/span&gt;" style="text;html=1;strokeColor=none;fillColor=none;align=center;verticalAlign=middle;whiteSpace=wrap;rounded=0;" vertex="1" parent="WIyWlLk6GJQsqaUBKTNV-1">
          <mxGeometry x="210" y="30" width="370" height="30" as="geometry" />
        </mxCell>
        <mxCell id="0FgXw2sklieyEirVIs_G-25" value="&lt;p class=&quot;paragraph&quot; style=&quot;margin-top: 0cm ; margin-right: 0cm ; margin-bottom: 0cm ; margin-left: 54.0pt ; text-indent: 0cm ; vertical-align: baseline&quot;&gt;&lt;span style=&quot;background-color: rgb(255 , 255 , 255)&quot;&gt;&lt;span class=&quot;normaltextrun&quot;&gt;&lt;i&gt;&lt;span lang=&quot;EN-US&quot; style=&quot;font-size: 11pt ; font-family: &amp;#34;calibri&amp;#34; , sans-serif&quot;&gt;void&lt;/span&gt;&lt;/i&gt;&lt;/span&gt;&lt;i&gt;&lt;span&gt;&amp;nbsp;&lt;/span&gt;&lt;span&gt;&lt;span style=&quot;border-bottom: transparent&quot;&gt;GENFUN&lt;/span&gt;&lt;/span&gt;&lt;span&gt;&lt;span style=&quot;border-bottom: transparent&quot;&gt;_&lt;/span&gt;&lt;/span&gt;&lt;span&gt;&lt;span style=&quot;border-bottom: transparent&quot;&gt;v&lt;/span&gt;&lt;/span&gt;&lt;span&gt;&lt;span style=&quot;border-bottom: transparent&quot;&gt;CapsO&lt;/span&gt;&lt;/span&gt;&lt;span&gt;&lt;span style=&quot;border-bottom: transparent&quot;&gt;ff&lt;/span&gt;&lt;/span&gt;&lt;span&gt;&amp;nbsp;&lt;/span&gt;&lt;span&gt;(&lt;/span&gt;&lt;span&gt;uint&lt;/span&gt;&lt;span&gt;8 *pu8Src&lt;/span&gt;&lt;span&gt;,&amp;nbsp;&lt;/span&gt;&lt;span&gt;uint8 u8SizeOfList)&lt;/span&gt;&lt;/i&gt;&lt;span&gt;&lt;span class=&quot;eop&quot;&gt;&lt;span lang=&quot;EN-US&quot; style=&quot;font-size: 11.0pt ; font-family: &amp;#34;calibri&amp;#34; , sans-serif&quot;&gt;&amp;nbsp;&lt;/span&gt;&lt;/span&gt;&lt;/span&gt;&lt;span lang=&quot;EN-US&quot; style=&quot;font-size: 14.0pt ; font-family: &amp;#34;calibri&amp;#34; , sans-serif&quot;&gt;&lt;/span&gt;&lt;/span&gt;&lt;/p&gt;&lt;span style=&quot;background-color: rgb(255 , 255 , 255)&quot;&gt;&lt;br&gt;&lt;br&gt;&lt;/span&gt;&lt;span&gt;&lt;span style=&quot;background-color: inherit&quot;&gt;&lt;/span&gt;&lt;/span&gt;" style="text;html=1;strokeColor=none;fillColor=none;align=center;verticalAlign=middle;whiteSpace=wrap;rounded=0;" vertex="1" parent="WIyWlLk6GJQsqaUBKTNV-1">
          <mxGeometry x="210" y="850" width="380" height="30" as="geometry" />
        </mxCell>
        <mxCell id="0FgXw2sklieyEirVIs_G-28" style="edgeStyle=orthogonalEdgeStyle;rounded=0;orthogonalLoop=1;jettySize=auto;html=1;exitX=0.5;exitY=1;exitDx=0;exitDy=0;" edge="1" parent="WIyWlLk6GJQsqaUBKTNV-1" source="0FgXw2sklieyEirVIs_G-26" target="0FgXw2sklieyEirVIs_G-27">
          <mxGeometry relative="1" as="geometry" />
        </mxCell>
        <mxCell id="0FgXw2sklieyEirVIs_G-26" value="start&amp;nbsp;" style="rounded=1;whiteSpace=wrap;html=1;fontSize=12;glass=0;strokeWidth=1;shadow=0;fillColor=#d5e8d4;strokeColor=#82b366;" vertex="1" parent="WIyWlLk6GJQsqaUBKTNV-1">
          <mxGeometry x="183.75" y="910" width="120" height="40" as="geometry" />
        </mxCell>
        <mxCell id="0FgXw2sklieyEirVIs_G-30" style="edgeStyle=orthogonalEdgeStyle;rounded=0;orthogonalLoop=1;jettySize=auto;html=1;exitX=0.5;exitY=1;exitDx=0;exitDy=0;" edge="1" parent="WIyWlLk6GJQsqaUBKTNV-1" source="0FgXw2sklieyEirVIs_G-27" target="0FgXw2sklieyEirVIs_G-29">
          <mxGeometry relative="1" as="geometry" />
        </mxCell>
        <mxCell id="0FgXw2sklieyEirVIs_G-27" value="printf msg" style="rounded=0;whiteSpace=wrap;html=1;fillColor=#fff2cc;strokeColor=#d6b656;" vertex="1" parent="WIyWlLk6GJQsqaUBKTNV-1">
          <mxGeometry x="191.25" y="1000" width="105" height="40" as="geometry" />
        </mxCell>
        <mxCell id="0FgXw2sklieyEirVIs_G-32" style="edgeStyle=orthogonalEdgeStyle;rounded=0;orthogonalLoop=1;jettySize=auto;html=1;exitX=0.5;exitY=1;exitDx=0;exitDy=0;entryX=0.5;entryY=0;entryDx=0;entryDy=0;" edge="1" parent="WIyWlLk6GJQsqaUBKTNV-1" source="0FgXw2sklieyEirVIs_G-29" target="0FgXw2sklieyEirVIs_G-45">
          <mxGeometry relative="1" as="geometry">
            <mxPoint x="243.75" y="1130" as="targetPoint" />
          </mxGeometry>
        </mxCell>
        <mxCell id="0FgXw2sklieyEirVIs_G-29" value="au8BufferTest[12]=text&amp;nbsp;" style="rounded=0;whiteSpace=wrap;html=1;fillColor=#ffe6cc;strokeColor=#d79b00;" vertex="1" parent="WIyWlLk6GJQsqaUBKTNV-1">
          <mxGeometry x="176.25" y="1070" width="135" height="30" as="geometry" />
        </mxCell>
        <mxCell id="0FgXw2sklieyEirVIs_G-33" value="" style="rounded=0;html=1;jettySize=auto;orthogonalLoop=1;fontSize=11;endArrow=block;endFill=0;endSize=8;strokeWidth=1;shadow=0;labelBackgroundColor=none;edgeStyle=orthogonalEdgeStyle;" edge="1" parent="WIyWlLk6GJQsqaUBKTNV-1" source="0FgXw2sklieyEirVIs_G-45" target="0FgXw2sklieyEirVIs_G-36">
          <mxGeometry relative="1" as="geometry" />
        </mxCell>
        <mxCell id="0FgXw2sklieyEirVIs_G-34" value="Yes" style="rounded=0;html=1;jettySize=auto;orthogonalLoop=1;fontSize=11;endArrow=block;endFill=0;endSize=8;strokeWidth=1;shadow=0;labelBackgroundColor=none;edgeStyle=orthogonalEdgeStyle;" edge="1" parent="WIyWlLk6GJQsqaUBKTNV-1" source="0FgXw2sklieyEirVIs_G-36" target="0FgXw2sklieyEirVIs_G-39">
          <mxGeometry y="20" relative="1" as="geometry">
            <mxPoint as="offset" />
          </mxGeometry>
        </mxCell>
        <mxCell id="0FgXw2sklieyEirVIs_G-35" value="No" style="edgeStyle=orthogonalEdgeStyle;rounded=0;html=1;jettySize=auto;orthogonalLoop=1;fontSize=11;endArrow=block;endFill=0;endSize=8;strokeWidth=1;shadow=0;labelBackgroundColor=none;" edge="1" parent="WIyWlLk6GJQsqaUBKTNV-1" source="0FgXw2sklieyEirVIs_G-36">
          <mxGeometry y="10" relative="1" as="geometry">
            <mxPoint as="offset" />
            <mxPoint x="69.97999999999999" y="1709" as="targetPoint" />
            <Array as="points">
              <mxPoint x="49.97999999999999" y="1334" />
              <mxPoint x="49.97999999999999" y="1719" />
            </Array>
          </mxGeometry>
        </mxCell>
        <mxCell id="0FgXw2sklieyEirVIs_G-36" value="u8SizeOfList != 0" style="rhombus;whiteSpace=wrap;html=1;shadow=0;fontFamily=Helvetica;fontSize=12;align=center;strokeWidth=1;spacing=6;spacingTop=-4;fillColor=#e6d0de;strokeColor=#996185;gradientColor=#d5739d;" vertex="1" parent="WIyWlLk6GJQsqaUBKTNV-1">
          <mxGeometry x="188.75" y="1260" width="110" height="90" as="geometry" />
        </mxCell>
        <mxCell id="0FgXw2sklieyEirVIs_G-37" value="No" style="rounded=0;html=1;jettySize=auto;orthogonalLoop=1;fontSize=11;endArrow=block;endFill=0;endSize=8;strokeWidth=1;shadow=0;labelBackgroundColor=none;edgeStyle=orthogonalEdgeStyle;" edge="1" parent="WIyWlLk6GJQsqaUBKTNV-1" source="0FgXw2sklieyEirVIs_G-39" target="0FgXw2sklieyEirVIs_G-41">
          <mxGeometry x="0.3333" y="20" relative="1" as="geometry">
            <mxPoint as="offset" />
          </mxGeometry>
        </mxCell>
        <mxCell id="0FgXw2sklieyEirVIs_G-38" value="Yes" style="edgeStyle=orthogonalEdgeStyle;rounded=0;html=1;jettySize=auto;orthogonalLoop=1;fontSize=11;endArrow=block;endFill=0;endSize=8;strokeWidth=1;shadow=0;labelBackgroundColor=none;" edge="1" parent="WIyWlLk6GJQsqaUBKTNV-1" source="0FgXw2sklieyEirVIs_G-39" target="0FgXw2sklieyEirVIs_G-43">
          <mxGeometry y="10" relative="1" as="geometry">
            <mxPoint as="offset" />
          </mxGeometry>
        </mxCell>
        <mxCell id="0FgXw2sklieyEirVIs_G-39" value="&lt;font style=&quot;font-size: 11px&quot;&gt;*pu8Src &amp;gt;= ASCII_LOW_THRESHOLD_CAPSON_TO_OFF &amp;amp;&amp;amp; *pu8Src &amp;lt;= ASCII_HIGH_THRESHOLD_CAPSON_TO_OFF&lt;/font&gt;" style="rhombus;whiteSpace=wrap;html=1;shadow=0;fontFamily=Helvetica;fontSize=12;align=center;strokeWidth=1;spacing=6;spacingTop=-4;gradientColor=#d5739d;fillColor=#e6d0de;strokeColor=#996185;" vertex="1" parent="WIyWlLk6GJQsqaUBKTNV-1">
          <mxGeometry x="196.25" y="1409" width="95" height="100" as="geometry" />
        </mxCell>
        <mxCell id="0FgXw2sklieyEirVIs_G-59" style="edgeStyle=orthogonalEdgeStyle;rounded=0;orthogonalLoop=1;jettySize=auto;html=1;exitX=0.5;exitY=1;exitDx=0;exitDy=0;" edge="1" parent="WIyWlLk6GJQsqaUBKTNV-1" source="0FgXw2sklieyEirVIs_G-41">
          <mxGeometry relative="1" as="geometry">
            <mxPoint x="244" y="1700" as="targetPoint" />
          </mxGeometry>
        </mxCell>
        <mxCell id="0FgXw2sklieyEirVIs_G-41" value="&lt;span class=&quot;normaltextrun&quot;&gt;&lt;span style=&quot;font-size: 11.0pt ; line-height: 107% ; font-family: &amp;#34;calibri&amp;#34; , sans-serif&quot;&gt;N/A&lt;/span&gt;&lt;/span&gt;&lt;span class=&quot;eop&quot;&gt;&lt;span style=&quot;font-size: 11.0pt ; line-height: 107% ; font-family: &amp;#34;calibri&amp;#34; , sans-serif&quot;&gt;&lt;span&gt;&amp;nbsp;&lt;/span&gt;&lt;/span&gt;&lt;/span&gt;" style="rounded=1;whiteSpace=wrap;html=1;fontSize=12;glass=0;strokeWidth=1;shadow=0;gradientColor=#ea6b66;fillColor=#f8cecc;strokeColor=#b85450;" vertex="1" parent="WIyWlLk6GJQsqaUBKTNV-1">
          <mxGeometry x="195" y="1559" width="97.5" height="20" as="geometry" />
        </mxCell>
        <mxCell id="0FgXw2sklieyEirVIs_G-42" style="edgeStyle=orthogonalEdgeStyle;rounded=0;orthogonalLoop=1;jettySize=auto;html=1;exitX=0.5;exitY=1;exitDx=0;exitDy=0;" edge="1" parent="WIyWlLk6GJQsqaUBKTNV-1" source="0FgXw2sklieyEirVIs_G-43">
          <mxGeometry relative="1" as="geometry">
            <mxPoint x="534.98" y="1629" as="targetPoint" />
          </mxGeometry>
        </mxCell>
        <mxCell id="0FgXw2sklieyEirVIs_G-43" value="*pu8Src += ASCII_CONVERSION_FACTOR" style="rounded=1;whiteSpace=wrap;html=1;fontSize=12;glass=0;strokeWidth=1;shadow=0;gradientColor=#ea6b66;fillColor=#f8cecc;strokeColor=#b85450;" vertex="1" parent="WIyWlLk6GJQsqaUBKTNV-1">
          <mxGeometry x="439.98" y="1439" width="190" height="30" as="geometry" />
        </mxCell>
        <mxCell id="0FgXw2sklieyEirVIs_G-45" value="uint8 *pu8Src" style="rounded=0;whiteSpace=wrap;html=1;fillColor=#e1d5e7;strokeColor=#9673a6;" vertex="1" parent="WIyWlLk6GJQsqaUBKTNV-1">
          <mxGeometry x="188.75" y="1130" width="110" height="30" as="geometry" />
        </mxCell>
        <mxCell id="0FgXw2sklieyEirVIs_G-46" value="uint8 u8SizeOfList" style="rounded=0;whiteSpace=wrap;html=1;fillColor=#e1d5e7;strokeColor=#9673a6;" vertex="1" parent="WIyWlLk6GJQsqaUBKTNV-1">
          <mxGeometry x="185" y="1190" width="117.5" height="30" as="geometry" />
        </mxCell>
        <mxCell id="0FgXw2sklieyEirVIs_G-48" style="edgeStyle=orthogonalEdgeStyle;rounded=0;orthogonalLoop=1;jettySize=auto;html=1;exitX=0;exitY=0.5;exitDx=0;exitDy=0;" edge="1" parent="WIyWlLk6GJQsqaUBKTNV-1" source="0FgXw2sklieyEirVIs_G-49">
          <mxGeometry relative="1" as="geometry">
            <mxPoint x="79.97999999999999" y="1714" as="targetPoint" />
          </mxGeometry>
        </mxCell>
        <mxCell id="0FgXw2sklieyEirVIs_G-49" value="End&amp;nbsp;" style="rounded=1;whiteSpace=wrap;html=1;fillColor=#d5e8d4;strokeColor=#82b366;" vertex="1" parent="WIyWlLk6GJQsqaUBKTNV-1">
          <mxGeometry x="203.76" y="1699" width="80" height="30" as="geometry" />
        </mxCell>
        <mxCell id="0FgXw2sklieyEirVIs_G-50" style="edgeStyle=orthogonalEdgeStyle;rounded=0;orthogonalLoop=1;jettySize=auto;html=1;exitX=0.5;exitY=1;exitDx=0;exitDy=0;entryX=0.5;entryY=0;entryDx=0;entryDy=0;" edge="1" parent="WIyWlLk6GJQsqaUBKTNV-1" source="0FgXw2sklieyEirVIs_G-52" target="0FgXw2sklieyEirVIs_G-49">
          <mxGeometry relative="1" as="geometry" />
        </mxCell>
        <mxCell id="0FgXw2sklieyEirVIs_G-52" value="printf au8BufferTest" style="rounded=0;whiteSpace=wrap;html=1;fillColor=#fff2cc;strokeColor=#d6b656;" vertex="1" parent="WIyWlLk6GJQsqaUBKTNV-1">
          <mxGeometry x="475.61" y="1609" width="118.75" height="50" as="geometry" />
        </mxCell>
        <mxCell id="0FgXw2sklieyEirVIs_G-53" value="&lt;p class=&quot;paragraph&quot; style=&quot;margin-top: 0cm ; margin-right: 0cm ; margin-bottom: 0cm ; margin-left: 54.0pt ; text-indent: 0cm ; vertical-align: baseline&quot;&gt;&lt;span style=&quot;background-color: rgb(255 , 255 , 255)&quot;&gt;&lt;span class=&quot;normaltextrun&quot;&gt;&lt;i&gt;&lt;span lang=&quot;EN-US&quot; style=&quot;font-size: 11pt ; font-family: &amp;#34;calibri&amp;#34; , sans-serif&quot;&gt;uint8 GENFUN&lt;/span&gt;&lt;/i&gt;&lt;/span&gt;&lt;/span&gt;&lt;i&gt;&lt;span&gt;&lt;span style=&quot;background-color: inherit&quot;&gt;_&lt;/span&gt;&lt;/span&gt;&lt;span&gt;&lt;span style=&quot;background-color: inherit&quot;&gt;u8GetOccurence&lt;/span&gt;&lt;/span&gt;&lt;span&gt;&lt;span style=&quot;background-color: inherit&quot;&gt;&amp;nbsp;&lt;/span&gt;&lt;/span&gt;&lt;span&gt;&lt;span style=&quot;background-color: inherit&quot;&gt;(&lt;/span&gt;&lt;/span&gt;&lt;span&gt;&lt;span style=&quot;background-color: inherit&quot;&gt;uint&lt;/span&gt;&lt;/span&gt;&lt;span&gt;&lt;span style=&quot;background-color: inherit&quot;&gt;8 *pu8Src,&amp;nbsp;&lt;/span&gt;&lt;/span&gt;&lt;span&gt;&lt;span style=&quot;background-color: inherit&quot;&gt;uint8 u8Target,&amp;nbsp;&lt;/span&gt;&lt;/span&gt;&lt;span&gt;&lt;span style=&quot;background-color: inherit&quot;&gt;uint8 u8SizeOfList)&lt;/span&gt;&lt;/span&gt;&lt;/i&gt;&lt;span&gt;&lt;span class=&quot;eop&quot;&gt;&lt;span lang=&quot;EN-US&quot; style=&quot;font-size: 11pt ; font-family: &amp;#34;calibri&amp;#34; , sans-serif ; background-color: rgb(255 , 255 , 255)&quot;&gt;&amp;nbsp;&lt;/span&gt;&lt;/span&gt;&lt;/span&gt;&lt;span lang=&quot;EN-US&quot; style=&quot;font-size: 14.0pt ; font-family: &amp;#34;calibri&amp;#34; , sans-serif ; background: yellow&quot;&gt;&lt;/span&gt;&lt;/p&gt;&lt;br&gt;&lt;br&gt;&lt;span&gt;&lt;span style=&quot;background-color: inherit&quot;&gt;&lt;/span&gt;&lt;/span&gt;" style="text;html=1;strokeColor=none;fillColor=none;align=center;verticalAlign=middle;whiteSpace=wrap;rounded=0;" vertex="1" parent="WIyWlLk6GJQsqaUBKTNV-1">
          <mxGeometry x="219.98" y="1770" width="410" height="46" as="geometry" />
        </mxCell>
        <mxCell id="0FgXw2sklieyEirVIs_G-54" style="edgeStyle=orthogonalEdgeStyle;rounded=0;orthogonalLoop=1;jettySize=auto;html=1;exitX=0.5;exitY=1;exitDx=0;exitDy=0;" edge="1" parent="WIyWlLk6GJQsqaUBKTNV-1" source="0FgXw2sklieyEirVIs_G-55" target="0FgXw2sklieyEirVIs_G-56">
          <mxGeometry relative="1" as="geometry" />
        </mxCell>
        <mxCell id="0FgXw2sklieyEirVIs_G-55" value="start&amp;nbsp;" style="rounded=1;whiteSpace=wrap;html=1;fontSize=12;glass=0;strokeWidth=1;shadow=0;fillColor=#d5e8d4;strokeColor=#82b366;" vertex="1" parent="WIyWlLk6GJQsqaUBKTNV-1">
          <mxGeometry x="195" y="1840" width="120" height="40" as="geometry" />
        </mxCell>
        <mxCell id="0FgXw2sklieyEirVIs_G-99" style="edgeStyle=orthogonalEdgeStyle;rounded=0;orthogonalLoop=1;jettySize=auto;html=1;exitX=0.5;exitY=1;exitDx=0;exitDy=0;entryX=0.5;entryY=0;entryDx=0;entryDy=0;" edge="1" parent="WIyWlLk6GJQsqaUBKTNV-1" source="0FgXw2sklieyEirVIs_G-56" target="0FgXw2sklieyEirVIs_G-90">
          <mxGeometry relative="1" as="geometry" />
        </mxCell>
        <mxCell id="0FgXw2sklieyEirVIs_G-56" value="printf msg" style="rounded=0;whiteSpace=wrap;html=1;fillColor=#fff2cc;strokeColor=#d6b656;" vertex="1" parent="WIyWlLk6GJQsqaUBKTNV-1">
          <mxGeometry x="202.5" y="1920" width="105" height="40" as="geometry" />
        </mxCell>
        <mxCell id="0FgXw2sklieyEirVIs_G-96" style="edgeStyle=orthogonalEdgeStyle;rounded=0;orthogonalLoop=1;jettySize=auto;html=1;exitX=0.5;exitY=1;exitDx=0;exitDy=0;entryX=0.5;entryY=0;entryDx=0;entryDy=0;" edge="1" parent="WIyWlLk6GJQsqaUBKTNV-1" source="0FgXw2sklieyEirVIs_G-57" target="0FgXw2sklieyEirVIs_G-58">
          <mxGeometry relative="1" as="geometry" />
        </mxCell>
        <mxCell id="0FgXw2sklieyEirVIs_G-57" value="printf au8BufferTest2" style="rounded=0;whiteSpace=wrap;html=1;fillColor=#fff2cc;strokeColor=#d6b656;" vertex="1" parent="WIyWlLk6GJQsqaUBKTNV-1">
          <mxGeometry x="430" y="2470" width="110" height="30" as="geometry" />
        </mxCell>
        <mxCell id="0FgXw2sklieyEirVIs_G-97" style="edgeStyle=orthogonalEdgeStyle;rounded=0;orthogonalLoop=1;jettySize=auto;html=1;entryX=1;entryY=0.5;entryDx=0;entryDy=0;" edge="1" parent="WIyWlLk6GJQsqaUBKTNV-1" source="0FgXw2sklieyEirVIs_G-58" target="0FgXw2sklieyEirVIs_G-86">
          <mxGeometry relative="1" as="geometry" />
        </mxCell>
        <mxCell id="0FgXw2sklieyEirVIs_G-58" value="&lt;div&gt;&lt;/div&gt;printf ASCII_TARGET_CODE&lt;div&gt;printf&amp;nbsp; u8ArrayOcurrences&lt;/div&gt;&lt;div&gt;&lt;span&gt;	&lt;/span&gt;&lt;/div&gt;" style="rounded=0;whiteSpace=wrap;html=1;fillColor=#fff2cc;strokeColor=#d6b656;" vertex="1" parent="WIyWlLk6GJQsqaUBKTNV-1">
          <mxGeometry x="370" y="2550" width="230" height="50" as="geometry" />
        </mxCell>
        <mxCell id="0FgXw2sklieyEirVIs_G-103" style="edgeStyle=orthogonalEdgeStyle;rounded=0;orthogonalLoop=1;jettySize=auto;html=1;exitX=0.5;exitY=1;exitDx=0;exitDy=0;entryX=0.5;entryY=0;entryDx=0;entryDy=0;" edge="1" parent="WIyWlLk6GJQsqaUBKTNV-1" source="0FgXw2sklieyEirVIs_G-60" target="0FgXw2sklieyEirVIs_G-77">
          <mxGeometry relative="1" as="geometry" />
        </mxCell>
        <mxCell id="0FgXw2sklieyEirVIs_G-60" value="uint8 u8ArrayOcurrences = 0;" style="rounded=0;whiteSpace=wrap;html=1;fillColor=#ffe6cc;strokeColor=#d79b00;" vertex="1" parent="WIyWlLk6GJQsqaUBKTNV-1">
          <mxGeometry x="185" y="2120" width="135" height="30" as="geometry" />
        </mxCell>
        <mxCell id="0FgXw2sklieyEirVIs_G-76" value="Yes" style="rounded=0;html=1;jettySize=auto;orthogonalLoop=1;fontSize=11;endArrow=block;endFill=0;endSize=8;strokeWidth=1;shadow=0;labelBackgroundColor=none;edgeStyle=orthogonalEdgeStyle;" edge="1" parent="WIyWlLk6GJQsqaUBKTNV-1" source="0FgXw2sklieyEirVIs_G-77" target="0FgXw2sklieyEirVIs_G-80">
          <mxGeometry y="20" relative="1" as="geometry">
            <mxPoint as="offset" />
          </mxGeometry>
        </mxCell>
        <mxCell id="0FgXw2sklieyEirVIs_G-104" style="edgeStyle=orthogonalEdgeStyle;rounded=0;orthogonalLoop=1;jettySize=auto;html=1;exitX=0;exitY=0.5;exitDx=0;exitDy=0;entryX=0;entryY=0.5;entryDx=0;entryDy=0;" edge="1" parent="WIyWlLk6GJQsqaUBKTNV-1" source="0FgXw2sklieyEirVIs_G-77" target="0FgXw2sklieyEirVIs_G-60">
          <mxGeometry relative="1" as="geometry">
            <Array as="points">
              <mxPoint x="60" y="2235" />
              <mxPoint x="60" y="2135" />
            </Array>
          </mxGeometry>
        </mxCell>
        <mxCell id="0FgXw2sklieyEirVIs_G-77" value="u8SizeOfList != 0" style="rhombus;whiteSpace=wrap;html=1;shadow=0;fontFamily=Helvetica;fontSize=12;align=center;strokeWidth=1;spacing=6;spacingTop=-4;fillColor=#e6d0de;strokeColor=#996185;gradientColor=#d5739d;" vertex="1" parent="WIyWlLk6GJQsqaUBKTNV-1">
          <mxGeometry x="197.5" y="2190" width="110" height="90" as="geometry" />
        </mxCell>
        <mxCell id="0FgXw2sklieyEirVIs_G-78" value="No" style="rounded=0;html=1;jettySize=auto;orthogonalLoop=1;fontSize=11;endArrow=block;endFill=0;endSize=8;strokeWidth=1;shadow=0;labelBackgroundColor=none;edgeStyle=orthogonalEdgeStyle;" edge="1" parent="WIyWlLk6GJQsqaUBKTNV-1" source="0FgXw2sklieyEirVIs_G-80" target="0FgXw2sklieyEirVIs_G-82">
          <mxGeometry x="0.3333" y="20" relative="1" as="geometry">
            <mxPoint as="offset" />
          </mxGeometry>
        </mxCell>
        <mxCell id="0FgXw2sklieyEirVIs_G-79" value="Yes" style="edgeStyle=orthogonalEdgeStyle;rounded=0;html=1;jettySize=auto;orthogonalLoop=1;fontSize=11;endArrow=block;endFill=0;endSize=8;strokeWidth=1;shadow=0;labelBackgroundColor=none;" edge="1" parent="WIyWlLk6GJQsqaUBKTNV-1" source="0FgXw2sklieyEirVIs_G-80" target="0FgXw2sklieyEirVIs_G-84">
          <mxGeometry y="10" relative="1" as="geometry">
            <mxPoint as="offset" />
          </mxGeometry>
        </mxCell>
        <mxCell id="0FgXw2sklieyEirVIs_G-80" value="&lt;span style=&quot;font-size: 11px&quot;&gt;&amp;nbsp;*pu8Src ==&amp;nbsp; u8Target&lt;/span&gt;" style="rhombus;whiteSpace=wrap;html=1;shadow=0;fontFamily=Helvetica;fontSize=12;align=center;strokeWidth=1;spacing=6;spacingTop=-4;gradientColor=#d5739d;fillColor=#e6d0de;strokeColor=#996185;" vertex="1" parent="WIyWlLk6GJQsqaUBKTNV-1">
          <mxGeometry x="207.5" y="2320" width="95" height="100" as="geometry" />
        </mxCell>
        <mxCell id="0FgXw2sklieyEirVIs_G-81" style="edgeStyle=orthogonalEdgeStyle;rounded=0;orthogonalLoop=1;jettySize=auto;html=1;exitX=0.5;exitY=1;exitDx=0;exitDy=0;entryX=0.5;entryY=0;entryDx=0;entryDy=0;" edge="1" parent="WIyWlLk6GJQsqaUBKTNV-1" source="0FgXw2sklieyEirVIs_G-82" target="0FgXw2sklieyEirVIs_G-86">
          <mxGeometry relative="1" as="geometry">
            <mxPoint x="254" y="2560" as="targetPoint" />
          </mxGeometry>
        </mxCell>
        <mxCell id="0FgXw2sklieyEirVIs_G-82" value="&lt;span class=&quot;normaltextrun&quot;&gt;&lt;span style=&quot;font-size: 11.0pt ; line-height: 107% ; font-family: &amp;#34;calibri&amp;#34; , sans-serif&quot;&gt;N/A&lt;/span&gt;&lt;/span&gt;&lt;span class=&quot;eop&quot;&gt;&lt;span style=&quot;font-size: 11.0pt ; line-height: 107% ; font-family: &amp;#34;calibri&amp;#34; , sans-serif&quot;&gt;&lt;span&gt;&amp;nbsp;&lt;/span&gt;&lt;/span&gt;&lt;/span&gt;" style="rounded=1;whiteSpace=wrap;html=1;fontSize=12;glass=0;strokeWidth=1;shadow=0;gradientColor=#ea6b66;fillColor=#f8cecc;strokeColor=#b85450;" vertex="1" parent="WIyWlLk6GJQsqaUBKTNV-1">
          <mxGeometry x="206.25" y="2499" width="97.5" height="20" as="geometry" />
        </mxCell>
        <mxCell id="0FgXw2sklieyEirVIs_G-83" style="edgeStyle=orthogonalEdgeStyle;rounded=0;orthogonalLoop=1;jettySize=auto;html=1;exitX=0.5;exitY=1;exitDx=0;exitDy=0;entryX=0.5;entryY=0;entryDx=0;entryDy=0;" edge="1" parent="WIyWlLk6GJQsqaUBKTNV-1" source="0FgXw2sklieyEirVIs_G-84" target="0FgXw2sklieyEirVIs_G-57">
          <mxGeometry relative="1" as="geometry">
            <mxPoint x="485.0050000000001" y="2510" as="targetPoint" />
          </mxGeometry>
        </mxCell>
        <mxCell id="0FgXw2sklieyEirVIs_G-84" value="u8ArrayOcurrences++;" style="rounded=1;whiteSpace=wrap;html=1;fontSize=12;glass=0;strokeWidth=1;shadow=0;gradientColor=#ea6b66;fillColor=#f8cecc;strokeColor=#b85450;" vertex="1" parent="WIyWlLk6GJQsqaUBKTNV-1">
          <mxGeometry x="390" y="2355" width="190" height="30" as="geometry" />
        </mxCell>
        <mxCell id="0FgXw2sklieyEirVIs_G-102" style="edgeStyle=orthogonalEdgeStyle;rounded=0;orthogonalLoop=1;jettySize=auto;html=1;exitX=0.5;exitY=1;exitDx=0;exitDy=0;entryX=0.5;entryY=0;entryDx=0;entryDy=0;" edge="1" parent="WIyWlLk6GJQsqaUBKTNV-1" source="0FgXw2sklieyEirVIs_G-85" target="0FgXw2sklieyEirVIs_G-60">
          <mxGeometry relative="1" as="geometry" />
        </mxCell>
        <mxCell id="0FgXw2sklieyEirVIs_G-85" value="uint8 u8SizeOfList" style="rounded=0;whiteSpace=wrap;html=1;fillColor=#e1d5e7;strokeColor=#9673a6;" vertex="1" parent="WIyWlLk6GJQsqaUBKTNV-1">
          <mxGeometry x="193.75" y="2060" width="117.5" height="30" as="geometry" />
        </mxCell>
        <mxCell id="0FgXw2sklieyEirVIs_G-86" value="End&amp;nbsp;" style="rounded=1;whiteSpace=wrap;html=1;fillColor=#d5e8d4;strokeColor=#82b366;" vertex="1" parent="WIyWlLk6GJQsqaUBKTNV-1">
          <mxGeometry x="215" y="2760" width="80" height="30" as="geometry" />
        </mxCell>
        <mxCell id="0FgXw2sklieyEirVIs_G-101" style="edgeStyle=orthogonalEdgeStyle;rounded=0;orthogonalLoop=1;jettySize=auto;html=1;exitX=0.5;exitY=1;exitDx=0;exitDy=0;entryX=0.5;entryY=0;entryDx=0;entryDy=0;" edge="1" parent="WIyWlLk6GJQsqaUBKTNV-1" source="0FgXw2sklieyEirVIs_G-90" target="0FgXw2sklieyEirVIs_G-85">
          <mxGeometry relative="1" as="geometry" />
        </mxCell>
        <mxCell id="0FgXw2sklieyEirVIs_G-90" value="uint8 *pu8Src" style="rounded=0;whiteSpace=wrap;html=1;fillColor=#e1d5e7;strokeColor=#9673a6;" vertex="1" parent="WIyWlLk6GJQsqaUBKTNV-1">
          <mxGeometry x="200" y="2000" width="110" height="30" as="geometry" />
        </mxCell>
        <mxCell id="0FgXw2sklieyEirVIs_G-98" value="&lt;br&gt;&lt;br&gt;&lt;br&gt;&lt;br&gt;&lt;br&gt;&lt;br&gt;&lt;span style=&quot;background-color: rgb(255 , 255 , 255)&quot;&gt;&lt;span class=&quot;normaltextrun&quot; style=&quot;text-indent: 0cm&quot;&gt;&lt;i&gt;&lt;span lang=&quot;EN-US&quot; style=&quot;font-size: 11pt ; font-family: &amp;#34;calibri&amp;#34; , sans-serif&quot;&gt;uint8 GENFUN&lt;/span&gt;&lt;/i&gt;&lt;/span&gt;&lt;span style=&quot;text-indent: 0cm&quot;&gt;_&lt;/span&gt;&lt;span style=&quot;text-indent: 0cm&quot;&gt;u8Get&lt;/span&gt;&lt;span style=&quot;text-indent: 0cm&quot;&gt;Average&lt;/span&gt;&lt;span style=&quot;text-indent: 0cm&quot;&gt;&amp;nbsp;&lt;/span&gt;&lt;span style=&quot;text-indent: 0cm&quot;&gt;(&lt;/span&gt;&lt;span style=&quot;text-indent: 0cm&quot;&gt;uint&lt;/span&gt;&lt;span style=&quot;text-indent: 0cm&quot;&gt;8 *pu8Src&lt;/span&gt;&lt;span style=&quot;text-indent: 0cm&quot;&gt;,&amp;nbsp;&lt;/span&gt;&lt;span style=&quot;text-indent: 0cm&quot;&gt;uint8 u8SizeOfList)&lt;/span&gt;&lt;span style=&quot;text-indent: 0cm&quot;&gt;&lt;span class=&quot;eop&quot;&gt;&lt;span lang=&quot;EN-US&quot; style=&quot;font-size: 11pt ; font-family: &amp;#34;calibri&amp;#34; , sans-serif&quot;&gt;&amp;nbsp;&lt;/span&gt;&lt;/span&gt;&lt;/span&gt;&lt;/span&gt;&lt;br&gt;&lt;p class=&quot;paragraph&quot; style=&quot;margin-top: 0cm ; margin-right: 0cm ; margin-bottom: 0cm ; margin-left: 54.0pt ; text-indent: 0cm ; vertical-align: baseline&quot;&gt;&lt;span lang=&quot;EN-US&quot; style=&quot;font-size: 14.0pt ; font-family: &amp;#34;calibri&amp;#34; , sans-serif ; background: yellow&quot;&gt;&lt;/span&gt;&lt;/p&gt;&lt;br&gt;&lt;br&gt;&lt;span&gt;&lt;span style=&quot;background-color: inherit&quot;&gt;&lt;br&gt;&lt;br&gt;&lt;br&gt;&lt;br&gt;&lt;/span&gt;&lt;/span&gt;" style="text;html=1;strokeColor=none;fillColor=none;align=center;verticalAlign=middle;whiteSpace=wrap;rounded=0;" vertex="1" parent="WIyWlLk6GJQsqaUBKTNV-1">
          <mxGeometry x="320" y="2810" width="280" height="30" as="geometry" />
        </mxCell>
        <mxCell id="0FgXw2sklieyEirVIs_G-105" value="no" style="text;html=1;strokeColor=none;fillColor=none;align=center;verticalAlign=middle;whiteSpace=wrap;rounded=0;" vertex="1" parent="WIyWlLk6GJQsqaUBKTNV-1">
          <mxGeometry x="120" y="2210" width="40" height="20" as="geometry" />
        </mxCell>
      </root>
    </mxGraphModel>
  </diagram>
</mxfile>
